#!OML:ASF E:\Style4\Style4.ASF
:FULLY-SPECIFIED
:DEGREES
1481
root -0.0139819 17.4796 -1.43359 8.64085 0.720817 2.48265
lowerback 15.7186 3.02152 0.888278
upperback 8.19558 4.08957 1.13423
thorax -0.127901 2.0434 0.0566205
lowerneck 1.46384 -2.97857 -5.30285
upperneck -2.89292 -4.04797 2.35012
head -0.988128 -2.00105 1.6797
rclavicle 3.33958e-014 -3.97569e-015
rhumerus -8.48218 19.011 -85.1814
rradius 122.826
rwrist 22.7186
rhand 27.9423 -1.95864
rfingers 7.12502
rthumb 51.8479 -22.1542
lclavicle 3.33958e-014 -3.97569e-015
lhumerus 1.76089 -15.1988 78.2869
lradius 127.393
lwrist -15.4686
lhand 7.46702 34.2816
lfingers 7.12502
lthumb 32.7201 61.3404
rfemur -31.344 -3.75237 16.8764
rtibia 43.3023
rfoot -18.6352 -16.1938
rtoes -12.1656
lfemur -32.7811 0.564578 -20.3345
ltibia 44.4336
lfoot -16.6645 7.94915
ltoes -17.1611
1482
root -0.00100836 17.479 -1.43662 8.65813 0.775639 2.30145
lowerback 15.7505 2.80351 0.501291
upperback 8.20981 3.76191 1.57343
thorax -0.185979 1.85917 0.779126
lowerneck 1.55617 -2.94099 -5.44224
upperneck -3.06643 -4.0128 2.14233
head -1.0616 -1.97726 1.64216
rclavicle -1.27222e-014 -6.36111e-015
rhumerus -8.64828 19.6775 -84.7487
rradius 123.377
rwrist 22.3297
rhand 27.9069 -1.95682
rfingers 7.12502
rthumb 51.8156 -22.1713
lclavicle -1.27222e-014 -6.36111e-015
lhumerus 1.94018 -14.4917 78.5526
lradius 126.431
lwrist -15.9912
lhand 7.89285 34.5679
lfingers 7.12502
lthumb 33.1251 61.5416
rfemur -31.3533 -3.87302 17.0601
rtibia 43.2669
rfoot -18.5487 -16.2675
rtoes -13.161
lfemur -32.9705 0.41264 -20.135
ltibia 44.7301
lfoot -16.8421 7.89531
ltoes -16.7302
1483
root 0.0121089 17.4699 -1.44077 8.69168 0.826598 1.98929
lowerback 15.7421 2.56351 0.499419
upperback 8.16513 3.45364 1.81282
thorax -0.240437 1.70033 1.07682
lowerneck 1.83217 -2.89231 -5.31286
upperneck -3.19443 -3.96176 2.07557
head -1.15509 -1.95149 1.60631
rclavicle -1.98785e-014 -4.77083e-015
rhumerus -8.78015 20.0812 -84.6277
rradius 123.873
rwrist 21.9847
rhand 27.8273 -1.82689
rfingers 7.12502
rthumb 51.7434 -22.0837
lclavicle -1.98785e-014 -4.77083e-015
lhumerus 2.1925 -14.0765 78.4341
lradius 125.393
lwrist -16.5336
lhand 8.13512 34.9357
lfingers 7.12502
lthumb 33.3555 61.8602
rfemur -31.4492 -3.98043 17.3978
rtibia 43.3505
rfoot -18.4247 -16.3825
rtoes -14.2249
lfemur -33.2357 0.311297 -19.7994
ltibia 45.1065
lfoot -16.9891 7.78755
ltoes -15.8756
1484
root 0.0262989 17.4555 -1.44386 8.68905 0.830873 1.75581
lowerback 15.7381 2.31993 0.490294
upperback 8.15482 3.1375 1.97207
thorax -0.253383 1.53913 1.29761
lowerneck 2.06636 -2.81919 -5.21028
upperneck -3.25695 -3.87416 2.05902
head -1.22085 -1.90856 1.58874
rclavicle 1.03368e-014 -2.3059e-014
rhumerus -8.85073 20.4724 -84.4862
rradius 124.452
rwrist 21.6602
rhand 27.7426 -1.75444
rfingers 7.12502
rthumb 51.6665 -22.0561
lclavicle 1.03368e-014 -2.3059e-014
lhumerus 2.56495 -13.5863 78.1828
lradius 124.346
lwrist -16.871
lhand 8.52523 35.4423
lfingers 7.12502
lthumb 33.7263 62.2864
rfemur -31.5776 -4.08074 17.6372
rtibia 43.5514
rfoot -18.4412 -16.3132
rtoes -14.4186
lfemur -33.4759 0.232117 -19.5641
ltibia 45.5271
lfoot -17.2268 7.74964
ltoes -15.5748
1485
root 0.0426086 17.4336 -1.44473 8.60869 0.821535 1.55719
lowerback 15.7387 2.08213 0.519738
upperback 8.23657 2.83139 2.09426
thorax -0.165272 1.38466 1.45901
lowerneck 2.17068 -2.77435 -5.1771
upperneck -3.36432 -3.81759 2.10193
head -1.27515 -1.88049 1.60041
rclavicle -5.56597e-015 7.95139e-015
rhumerus -8.79285 20.8055 -84.2621
rradius 125.143
rwrist 21.3797
rhand 27.6713 -1.74101
rfingers 7.12502
rthumb 51.6016 -22.0803
lclavicle -5.56597e-015 7.95139e-015
lhumerus 3.02945 -13.1292 77.9492
lradius 123.37
lwrist -17.297
lhand 9.18213 35.8355
lfingers 7.12502
lthumb 34.3502 62.5408
rfemur -31.6761 -4.24224 17.8276
rtibia 43.8684
rfoot -18.6074 -16.1611
rtoes -14.3068
lfemur -33.6417 0.162429 -19.3801
ltibia 45.9953
lfoot -17.6287 7.757
ltoes -15.6201
1486
root 0.0574603 17.4053 -1.44578 8.48118 0.788183 1.39288
lowerback 15.6793 1.85911 0.478441
upperback 8.3755 2.53281 2.20609
thorax 0.0137344 1.2317 1.65107
lowerneck 2.34309 -2.72379 -5.08837
upperneck -3.57815 -3.75553 2.12696
head -1.37674 -1.84915 1.59999
rclavicle 1.19271e-014 -2.8625e-014
rhumerus -8.57728 21.0854 -84.0667
rradius 125.832
rwrist 21.1323
rhand 27.7166 -1.56489
rfingers 7.12502
rthumb 51.6429 -21.8803
lclavicle 1.19271e-014 -2.8625e-014
lhumerus 3.44207 -12.7797 77.7391
lradius 122.414
lwrist -17.7234
lhand 9.93304 36.4614
lfingers 7.12502
lthumb 35.0628 63.0028
rfemur -31.7964 -4.40748 17.9824
rtibia 44.3048
rfoot -18.821 -16.0774
rtoes -14.1326
lfemur -33.7626 0.106435 -19.2299
ltibia 46.4733
lfoot -17.9784 7.74983
ltoes -15.6596
1487
root 0.0716081 17.37 -1.44876 8.31002 0.73546 1.22435
lowerback 15.4895 1.65496 0.407142
upperback 8.64168 2.25039 2.34073
thorax 0.396036 1.08409 1.88666
lowerneck 2.48517 -2.67418 -5.02264
upperneck -3.86737 -3.69492 2.12263
head -1.49756 -1.81689 1.59479
rclavicle -2.38542e-015 -9.54166e-015
rhumerus -8.0472 21.3301 -83.7579
rradius 126.491
rwrist 20.789
rhand 27.6425 -1.49716
rfingers 7.12502
rthumb 51.5755 -21.8516
lclavicle -2.38542e-015 -9.54166e-015
lhumerus 4.06719 -12.5194 77.534
lradius 121.4
lwrist -17.9207
lhand 10.5584 37.2669
lfingers 7.12502
lthumb 35.6558 63.6672
rfemur -31.9448 -4.51733 18.1372
rtibia 44.8563
rfoot -19.0258 -16.1293
rtoes -14.7212
lfemur -33.838 0.103301 -19.0838
ltibia 46.9577
lfoot -18.347 7.71548
ltoes -15.9884
1488
root 0.0856341 17.3304 -1.4493 8.08455 0.628577 1.12579
lowerback 16.3369 1.41019 0.239948
upperback 8.2727 1.92767 2.37106
thorax -0.435662 0.919589 2.03625
lowerneck 2.62729 -2.53865 -4.98415
upperneck -3.48018 -3.51686 2.16453
head -1.40538 -1.73381 1.59525
rclavicle 6.36111e-015 1.82882e-014
rhumerus -8.5626 21.8085 -84.0482
rradius 127.316
rwrist 20.5103
rhand 27.4174 -1.52952
rfingers 7.12502
rthumb 51.3708 -22.0016
lclavicle 6.36111e-015 1.82882e-014
lhumerus 3.67368 -12.2271 77.3103
lradius 120.66
lwrist -18.3669
lhand 11.4955 37.8603
lfingers 7.12502
lthumb 36.5433 64.0414
rfemur -32.0751 -4.61289 18.1981
rtibia 45.5123
rfoot -19.4795 -16.023
rtoes -14.8476
lfemur -33.8262 0.154897 -19.0219
ltibia 47.4495
lfoot -18.8286 7.60084
ltoes -15.6546
1489
root 0.097831 17.292 -1.44797 7.78579 0.537302 1.06182
lowerback 16.6267 1.23697 0.0575545
upperback 8.29411 1.6798 2.423
thorax -0.561429 0.789792 2.23035
lowerneck 2.85449 -2.47206 -4.94377
upperneck -3.51644 -3.43478 2.23708
head -1.45965 -1.69503 1.61595
rclavicle -1.07344e-014 -3.18055e-015
rhumerus -8.23955 21.9772 -83.868
rradius 127.927
rwrist 20.0501
rhand 27.1256 -1.49254
rfingers 7.12502
rthumb 51.1052 -22.1151
lclavicle -1.07344e-014 -3.18055e-015
lhumerus 3.76056 -11.9216 77.1675
lradius 120.03
lwrist -19.2142
lhand 13.0118 38.1915
lfingers 7.12502
lthumb 37.977 63.997
rfemur -32.1417 -4.79418 18.2438
rtibia 46.2497
rfoot -19.85 -15.8027
rtoes -14.7739
lfemur -33.7193 0.127501 -18.9802
ltibia 47.945
lfoot -19.3123 7.51921
ltoes -15.1937
1490
root 0.109606 17.2496 -1.44798 7.40065 0.492097 1.10464
lowerback 16.9973 1.06503 -0.256696
upperback 8.32169 1.4142 2.4622
thorax -0.721729 0.648342 2.49027
lowerneck 3.29649 -2.38982 -4.89513
upperneck -3.73508 -3.34189 2.29888
head -1.61147 -1.64972 1.63937
rclavicle 1.03368e-014 7.95139e-015
rhumerus -7.49326 22.048 -83.4849
rradius 128.299
rwrist 19.609
rhand 26.8976 -1.4426
rfingers 7.12502
rthumb 50.8974 -22.1811
lclavicle 1.03368e-014 7.95139e-015
lhumerus 3.70928 -11.6989 77.0695
lradius 119.544
lwrist -19.7967
lhand 14.3287 38.7183
lfingers 7.12502
lthumb 39.2194 64.1751
rfemur -32.1433 -5.0184 18.1706
rtibia 47.0309
rfoot -20.0487 -15.7465
rtoes -15.5718
lfemur -33.5408 0.00661244 -19.0486
ltibia 48.4492
lfoot -19.8103 7.5259
ltoes -15.1171
1491
root 0.121657 17.2013 -1.44821 6.95503 0.44899 1.15224
lowerback 17.3837 0.892181 -0.534969
upperback 8.40751 1.14856 2.46029
thorax -0.822535 0.508239 2.69004
lowerneck 3.60883 -2.31726 -4.988
upperneck -3.89475 -3.25506 2.52841
head -1.71839 -1.60959 1.73821
rclavicle -1.23246e-014 -1.11319e-014
rhumerus -6.6873 22.0901 -83.1805
rradius 128.719
rwrist 19.3232
rhand 26.7482 -1.5578
rfingers 7.12502
rthumb 50.7612 -22.3715
lclavicle -1.23246e-014 -1.11319e-014
lhumerus 3.77122 -11.5652 76.9004
lradius 119.061
lwrist -20.0909
lhand 15.1848 39.2518
lfingers 7.12502
lthumb 40.0256 64.4702
rfemur -32.1144 -5.2316 18.0645
rtibia 47.8195
rfoot -20.3568 -15.763
rtoes -16.5223
lfemur -33.2951 -0.0525116 -19.1439
ltibia 48.9323
lfoot -20.3515 7.59741
ltoes -15.4236
1492
root 0.132379 17.1504 -1.44999 6.54698 0.409173 1.15392
lowerback 17.6876 0.720473 -0.760387
upperback 8.52053 0.889533 2.44608
thorax -0.847679 0.372318 2.84883
lowerneck 3.86982 -2.25563 -5.33732
upperneck -4.02246 -3.1839 2.99845
head -1.80078 -1.57961 1.96046
rclavicle 0 3.97569e-015
rhumerus -5.85797 22.1046 -82.9615
rradius 129.151
rwrist 19.1969
rhand 26.4605 -1.55425
rfingers 7.12502
rthumb 50.4986 -22.5112
lclavicle 0 3.97569e-015
lhumerus 3.83674 -11.4677 76.7363
lradius 118.601
lwrist -20.3362
lhand 16.0157 39.6762
lfingers 7.12502
lthumb 40.8068 64.6537
rfemur -32.1198 -5.38458 17.9895
rtibia 48.5824
rfoot -21.0185 -15.5454
rtoes -15.762
lfemur -33.0716 -0.0307406 -19.2054
ltibia 49.3788
lfoot -20.9887 7.56858
ltoes -15.1202
